<svg viewBox="0 0 512 512" fill="none" xmlns:xlink="http://www.w3.org/1999/xlink" xmlns="http://www.w3.org/2000/svg"><defs><path id="c" d="M512 0v512H0V0h512Z"/><path id="a" d="M0 0h512v512H0z"/><clipPath id="b"><use xlink:href="#a"/></clipPath></defs><g clip-path="url(#b)"><use xlink:href="#c" style="mix-blend-mode:normal"/><path d="M27.267 108.891h163.6v27.222H0V54.445h163.6V27.223H0V0h190.867v81.668h-163.6v27.223ZM218.133 0H409v136.113H218.133v-27.222h163.6V81.668h-163.6V54.445h163.6V27.223h-163.6V0Z" style="fill:#000;mix-blend-mode:normal" transform="translate(52 100)"/><path d="M0 0h190.454v136.113H0V0Zm27.208 108.891h136.039V27.222H27.207v81.669ZM217.662 0h190.455v136.113H217.662V0Zm27.208 108.891h136.039V27.222H244.87v81.669Z" style="fill:#000;mix-blend-mode:normal" transform="translate(52 275.887)"/></g></svg>